<?xml version="1.0" encoding="UTF-8" standalone="no"?>
<!-- Created with Inkscape (http://www.inkscape.org/) -->

<svg
   version="1.1"
   id="svg9"
   width="200"
   height="200"
   viewBox="0 0 200 200"
   sodipodi:docname="logo_cudostrona.svg"
   inkscape:version="1.1.2 (b8e25be833, 2022-02-05)"
   xmlns:inkscape="http://www.inkscape.org/namespaces/inkscape"
   xmlns:sodipodi="http://sodipodi.sourceforge.net/DTD/sodipodi-0.dtd"
   xmlns="http://www.w3.org/2000/svg"
   xmlns:svg="http://www.w3.org/2000/svg">
  <defs
     id="defs13" />
  <sodipodi:namedview
     id="namedview11"
     pagecolor="#ffffff"
     bordercolor="#666666"
     borderopacity="1.0"
     inkscape:pageshadow="2"
     inkscape:pageopacity="0.0"
     inkscape:pagecheckerboard="0"
     showgrid="false"
     showguides="false"
     inkscape:zoom="2"
     inkscape:cx="190"
     inkscape:cy="177.5"
     inkscape:window-width="1680"
     inkscape:window-height="987"
     inkscape:window-x="-8"
     inkscape:window-y="-8"
     inkscape:window-maximized="1"
     inkscape:current-layer="svg9" />
  <path
     style="fill:none;stroke:#000000;stroke-width:1px;stroke-linecap:butt;stroke-linejoin:miter;stroke-opacity:1"
     d="m 99.116848,135.52989 -44.769022,23.2337 48.369564,2.92119 5.97826,6.86142 3.26087,-12.16033 27.51359,-18.07065 -3.46468,-32.8125 10.94294,-1.70381 -16.4538,-8.497279 -14.25816,10.608699 -32.880432,-75.475547 v 0 l 0.203805,26.42663 -19.565218,-18.478261 15.896739,73.505438 z"
     id="path234"
     sodipodi:nodetypes="cccccccccccccccc" />
  <path
     style="fill:none;stroke:#000000;stroke-width:1px;stroke-linecap:butt;stroke-linejoin:miter;stroke-opacity:1"
     d="M 79.891304,111.88859 103.67334,78.641113 83.559783,56.861413"
     id="path236"
     sodipodi:nodetypes="ccc" />
  <path
     style="fill:none;stroke:#000000;stroke-width:1px;stroke-linecap:butt;stroke-linejoin:miter;stroke-opacity:1"
     d="m 115.49793,139.34474 -37.304995,20.80369 -23.845109,-1.38484 44.769022,-23.2337 c 0,0 24.762232,-1.25683 27.241852,-1.42663 z"
     id="path240"
     sodipodi:nodetypes="cccccc" />
  <path
     style="fill:none;stroke:#000000;stroke-width:1px;stroke-linecap:butt;stroke-linejoin:miter;stroke-opacity:1"
     d="m 102.71739,161.68478 9.23913,-5.29891"
     id="path242" />
  <path
     style="fill:#000000;stroke-width:0.25"
     d="m 103.67334,78.641113 c -1.9539,1.763802 -3.2377,4.221409 -4.883389,6.282618 -6.251422,8.811607 -12.480296,17.643669 -18.545811,26.583099 -0.124449,1.32539 1.403632,2.12943 1.969178,3.21478 5.506252,6.91807 11.123619,13.74666 16.692443,20.61433 1.579029,0.57427 3.419409,-0.0907 5.100849,0.0169 7.15803,-0.4238 15.20959,-0.64202 22.35209,-1.24958 -6.26603,-16.55601 -10.64156,-29.09439 -16.46197,-42.903829 -1.86257,-4.107959 -3.51796,-8.347095 -5.52533,-12.367758 -0.12444,-0.259953 -0.47615,-0.124218 -0.69806,-0.19053 z"
     id="path3462"
     sodipodi:nodetypes="ccccccccccc" />
  <path
     style="fill:#000000;stroke-width:0.5"
     d="m 84.382812,35.175781 c -1.477634,2.105876 -0.345278,5.278823 -0.778009,7.728509 0.09131,4.648739 -0.285315,9.387338 0.131525,13.976569 5.947092,6.149372 11.401179,12.914755 17.723632,18.632813 2.00129,-0.837246 -0.65233,-3.358951 -0.79173,-4.828719 -5.12539,-11.818147 -9.981343,-23.83237 -15.51784,-35.424211 -0.216982,-0.156527 -0.517166,-0.201186 -0.767578,-0.08496 z"
     id="path4013" />
  <path
     style="fill:#000000;stroke-width:0.0625"
     d="m 83.692749,32.472412 c -0.647114,0.284174 -0.443268,1.064456 -0.485124,1.624509 0.03473,0.725973 -0.08897,1.47217 0.08156,2.181643 0.284356,0.521105 1.097523,0.436479 1.294138,-0.113007 0.09432,-0.361275 0.36479,-0.487621 0.675101,-0.62979 0.486447,-0.539063 -0.06556,-1.179159 -0.251587,-1.723267 -0.276653,-0.503887 -0.363592,-1.308904 -1.06189,-1.38208 -0.08407,0.014 -0.168131,0.028 -0.252197,0.04199 z"
     id="path4052" />
  <path
     style="fill:#000000;stroke-width:0.0625"
     d="m 102.01953,74.311523 c -0.40423,0.09245 -0.57502,0.517482 -0.92274,0.706447 -0.42891,0.357614 -0.20141,0.977307 0.18743,1.268138 0.51459,0.502239 0.9252,1.14247 1.54305,1.522852 0.5817,0.229733 1.17426,-0.449605 0.88208,-0.996826 -0.31757,-0.755075 -0.57948,-1.549576 -0.9988,-2.252234 -0.15824,-0.205401 -0.43947,-0.295586 -0.69102,-0.248377 z"
     id="path4091" />
  <path
     style="fill:none;stroke:#000000;stroke-width:1px;stroke-linecap:butt;stroke-linejoin:miter;stroke-opacity:1"
     d="m 124.1712,133.35326 15.29891,4.96196"
     id="path5898"
     sodipodi:nodetypes="cc" />
  <path
     style="fill:none;stroke:#000000;stroke-width:1px;stroke-linecap:butt;stroke-linejoin:miter;stroke-opacity:1"
     d="M 138.32776,126.57211 116.761,110.04349"
     id="path5900"
     sodipodi:nodetypes="cc" />
  <path
     style="fill:none;stroke:#000000;stroke-width:1px;stroke-linecap:butt;stroke-linejoin:miter;stroke-opacity:1"
     d="m 116.23641,105.91033 19.76902,-0.40761"
     id="path6182"
     sodipodi:nodetypes="cc" />
  <path
     style="fill:#000000;stroke-width:0.5"
     d="m 115.75488,106.06348 c -0.0893,3.91025 4.33477,5.7921 6.77546,8.20435 4.79763,3.61114 9.4191,7.58787 14.50189,10.75072 1.77539,-0.87788 0.0978,-3.6519 0.4414,-5.21777 -0.64667,-4.6107 -0.52404,-9.51371 -1.92676,-13.91113 -6.54734,-0.0343 -13.32743,-0.38014 -19.79199,0.17383 z"
     id="path6392" />
  <path
     style="fill:#000000;stroke-width:0.0625"
     d="m 137.13672,124.13647 c -0.42094,0.26076 -0.84934,0.76301 -0.52381,1.26331 0.32032,0.39981 0.91164,0.78712 1.37488,0.36755 0.35891,-0.47574 0.3544,-1.32938 -0.19116,-1.66662 -0.23781,-0.077 -0.43036,-0.066 -0.65991,0.0358 z"
     id="path6431" />
  <path
     style="fill:#000000;stroke-width:0.0625"
     d="m 126.25049,134.01819 c -2.22106,0.98007 -4.38488,2.08971 -6.57921,3.12934 -2.08861,1.02591 -4.21993,1.96976 -6.22487,3.15665 -11.23415,6.27018 -22.48453,12.51157 -33.701537,18.81227 -0.539171,0.3179 -0.356149,1.21497 0.262085,1.29664 2.958929,0.28603 5.93267,0.40911 8.898626,0.61145 4.535688,0.2657 9.069557,0.5758 13.607306,0.79865 0.67997,-0.0584 1.2004,-0.59221 1.80504,-0.86858 2.68502,-1.55849 5.40282,-3.06353 8.06722,-4.65563 8.71593,-5.72737 17.44429,-11.43591 26.1472,-17.18301 0.47895,-0.32911 0.33892,-1.11535 -0.21021,-1.28064 -2.95564,-1.07885 -5.97346,-1.98064 -8.95938,-2.97192 -0.94692,-0.27572 -1.87102,-0.66969 -2.83242,-0.87037 -0.0983,-0.0138 -0.18677,-0.0141 -0.27985,0.0251 z"
     id="path6470" />
</svg>
