<?xml version="1.0" encoding="UTF-8" standalone="no"?>
<!-- Created with Inkscape (http://www.inkscape.org/) -->

<svg
   version="1.1"
   id="svg9"
   width="200"
   height="200"
   viewBox="0 0 200 200"
   sodipodi:docname="logo_cudostrona4.svg"
   inkscape:version="1.1.2 (b8e25be833, 2022-02-05)"
   xmlns:inkscape="http://www.inkscape.org/namespaces/inkscape"
   xmlns:sodipodi="http://sodipodi.sourceforge.net/DTD/sodipodi-0.dtd"
   xmlns="http://www.w3.org/2000/svg"
   xmlns:svg="http://www.w3.org/2000/svg">
  <defs
     id="defs13" />
  <sodipodi:namedview
     id="namedview11"
     pagecolor="#ffffff"
     bordercolor="#666666"
     borderopacity="1.0"
     inkscape:pageshadow="2"
     inkscape:pageopacity="0.0"
     inkscape:pagecheckerboard="0"
     showgrid="false"
     showguides="false"
     inkscape:zoom="2.8284271"
     inkscape:cx="97.144"
     inkscape:cy="117.219"
     inkscape:window-width="1680"
     inkscape:window-height="987"
     inkscape:window-x="-8"
     inkscape:window-y="-8"
     inkscape:window-maximized="1"
     inkscape:current-layer="svg9" />
  <path
     style="fill:none;stroke:#000000;stroke-width:1px;stroke-linecap:butt;stroke-linejoin:miter;stroke-opacity:1"
     d="m 106.44936,118.16659 -44.769027,23.2337 48.369567,2.92119 5.97826,6.86142 3.26087,-12.16033 27.51359,-18.07065 -3.46468,-32.812504 13.68228,-3.718387 -20.23588,-4.215346 -13.21542,8.341343 -32.880435,-75.475547 v 0 L 90.89229,39.498109 71.327072,21.019848 87.223811,94.525286 Z"
     id="path234"
     sodipodi:nodetypes="cccccccccccccccc" />
  <path
     style="fill:none;stroke:#000000;stroke-width:1px;stroke-linecap:butt;stroke-linejoin:miter;stroke-opacity:1"
     d="M 87.223811,94.525286 111.00585,61.277809 90.89229,39.498109"
     id="path236"
     sodipodi:nodetypes="ccc" />
  <path
     style="fill:none;stroke:#000000;stroke-width:1px;stroke-linecap:butt;stroke-linejoin:miter;stroke-opacity:1"
     d="m 122.83044,121.98144 -37.304998,20.80369 -23.845109,-1.38484 44.769027,-23.2337 c 0,0 24.76223,-1.25683 27.24185,-1.42663 z"
     id="path240"
     sodipodi:nodetypes="cccccc" />
  <path
     style="fill:none;stroke:#000000;stroke-width:1px;stroke-linecap:butt;stroke-linejoin:miter;stroke-opacity:1"
     d="m 110.0499,144.32148 9.23913,-5.29891"
     id="path242" />
  <path
     style="fill:#000000;stroke-width:0.25"
     d="m 111.00585,61.277809 c -1.9539,1.763802 -3.2377,4.221409 -4.88339,6.282618 -6.251424,8.811607 -12.480298,17.643669 -18.545813,26.583099 -0.124449,1.32539 1.403632,2.12943 1.969178,3.21478 5.506252,6.918074 11.123615,13.746664 16.692445,20.614334 1.57903,0.57427 3.41941,-0.0907 5.10085,0.0169 7.15803,-0.4238 15.20959,-0.64202 22.35209,-1.24958 -6.26603,-16.55601 -10.64156,-29.094394 -16.46197,-42.903833 -1.86257,-4.107959 -3.51796,-8.347095 -5.52533,-12.367758 -0.12444,-0.259953 -0.47615,-0.124218 -0.69806,-0.19053 z"
     id="path3462"
     sodipodi:nodetypes="ccccccccccc" />
  <path
     style="fill:#000000;stroke-width:0.5"
     d="m 91.715319,17.812477 c -1.477634,2.105876 -0.345278,5.278823 -0.778009,7.728509 0.09131,4.648739 -0.285315,9.387338 0.131525,13.976569 5.947092,6.149372 11.401175,12.914755 17.723635,18.632813 2.00129,-0.837246 -0.65233,-3.358951 -0.79173,-4.828719 -5.12539,-11.818147 -9.981346,-23.83237 -15.517843,-35.424211 -0.216982,-0.156527 -0.517166,-0.201186 -0.767578,-0.08496 z"
     id="path4013" />
  <path
     style="fill:#000000;stroke-width:0.0625"
     d="m 91.025256,15.109108 c -0.647114,0.284174 -0.443268,1.064456 -0.485124,1.624509 0.03473,0.725973 -0.08897,1.47217 0.08156,2.181643 0.284356,0.521105 1.097523,0.436479 1.294138,-0.113007 0.09432,-0.361275 0.36479,-0.487621 0.675101,-0.62979 0.486447,-0.539063 -0.06556,-1.179159 -0.251587,-1.723267 -0.276653,-0.503887 -0.363592,-1.308904 -1.06189,-1.38208 -0.08407,0.014 -0.168131,0.028 -0.252197,0.04199 z"
     id="path4052" />
  <path
     style="fill:#000000;stroke-width:0.0625"
     d="m 109.35204,56.948219 c -0.40423,0.09245 -0.57502,0.517482 -0.92274,0.706447 -0.42891,0.357614 -0.20141,0.977307 0.18743,1.268138 0.51459,0.502239 0.9252,1.14247 1.54305,1.522852 0.5817,0.229733 1.17426,-0.449605 0.88208,-0.996826 -0.31757,-0.755075 -0.57948,-1.549576 -0.9988,-2.252234 -0.15824,-0.205401 -0.43947,-0.295586 -0.69102,-0.248377 z"
     id="path4091" />
  <path
     style="fill:none;stroke:#000000;stroke-width:1px;stroke-linecap:butt;stroke-linejoin:miter;stroke-opacity:1"
     d="m 131.50371,115.98996 15.29891,4.96196"
     id="path5898"
     sodipodi:nodetypes="cc" />
  <path
     style="fill:none;stroke:#000000;stroke-width:1px;stroke-linecap:butt;stroke-linejoin:miter;stroke-opacity:1"
     d="M 145.66027,109.20881 124.09351,92.680186"
     id="path5900"
     sodipodi:nodetypes="cc" />
  <path
     style="fill:none;stroke:#000000;stroke-width:1px;stroke-linecap:butt;stroke-linejoin:miter;stroke-opacity:1"
     d="m 123.56892,88.547026 19.76902,-0.40761"
     id="path6182"
     sodipodi:nodetypes="cc" />
  <path
     style="fill:#000000;stroke-width:0.5"
     d="m 123.08739,88.700176 c -0.0893,3.91025 4.33477,5.7921 6.77546,8.20435 4.79763,3.611144 9.4191,7.587874 14.50189,10.750724 1.77539,-0.87788 0.0978,-3.6519 0.4414,-5.21777 -0.64667,-4.610704 -0.52404,-9.513714 -1.92676,-13.911134 -6.54734,-0.0343 -13.32743,-0.38014 -19.79199,0.17383 z"
     id="path6392" />
  <path
     style="fill:#000000;stroke-width:0.0625"
     d="m 144.46923,106.77317 c -0.42094,0.26076 -0.84934,0.76301 -0.52381,1.26331 0.32032,0.39981 0.91164,0.78712 1.37488,0.36755 0.35891,-0.47574 0.3544,-1.32938 -0.19116,-1.66662 -0.23781,-0.077 -0.43036,-0.066 -0.65991,0.0358 z"
     id="path6431" />
  <path
     style="fill:#000000;stroke-width:0.0625"
     d="m 133.583,116.65489 c -2.22106,0.98007 -4.38488,2.08971 -6.57921,3.12934 -2.08861,1.02591 -4.21993,1.96976 -6.22487,3.15665 -11.23415,6.27018 -22.484533,12.51157 -33.70154,18.81227 -0.539171,0.3179 -0.356149,1.21497 0.262085,1.29664 2.958929,0.28603 5.93267,0.40911 8.898626,0.61145 4.535689,0.2657 9.069559,0.5758 13.607309,0.79865 0.67997,-0.0584 1.2004,-0.59221 1.80504,-0.86858 2.68502,-1.55849 5.40282,-3.06353 8.06722,-4.65563 8.71593,-5.72737 17.44429,-11.43591 26.1472,-17.18301 0.47895,-0.32911 0.33892,-1.11535 -0.21021,-1.28064 -2.95564,-1.07885 -5.97346,-1.98064 -8.95938,-2.97192 -0.94692,-0.27572 -1.87102,-0.66969 -2.83242,-0.87037 -0.0983,-0.0138 -0.18677,-0.0141 -0.27985,0.0251 z"
     id="path6470" />
  <path
     style="fill:none;stroke:#000000;stroke-width:1px;stroke-linecap:butt;stroke-linejoin:miter;stroke-opacity:1"
     d="m 99.941817,143.71698 -33.700377,13.27889 -3.228259,-14.27681 -21.047678,36.66572 22.790565,-20.2436 1.485372,-2.14531"
     id="path1198"
     sodipodi:nodetypes="cccccc" />
  <path
     style="fill:none;stroke:#000000;stroke-width:1px;stroke-linecap:butt;stroke-linejoin:miter;stroke-opacity:1"
     d="M 85.525442,142.78513 106.44936,118.16659"
     id="path2031" />
  <path
     style="fill:#000000;stroke-width:0.176777"
     d="m 103.4468,119.72949 c -12.281925,6.22178 -24.500309,12.5757 -36.683378,18.9904 -0.909943,0.61609 -2.160192,0.92312 -2.774607,1.88196 -0.285674,1.14738 1.209963,1.11936 1.94818,1.14433 6.301901,0.40776 12.604334,0.77528 18.90745,1.09862 1.318744,-0.4075 2.024747,-1.82476 2.998764,-2.72587 5.546322,-6.41127 11.078161,-12.8431 16.453411,-19.39612 0.23167,-0.58489 -0.24264,-1.13492 -0.84982,-0.99332 z"
     id="path2070" />
  <path
     style="fill:#000000;stroke-width:0.176777"
     d="m 62.471334,144.11027 c -1.071224,1.04956 -1.604176,2.58731 -2.458913,3.82532 -5.356207,9.19524 -10.758498,18.36736 -15.94293,27.66005 -0.43638,0.97104 1.006749,1.45395 1.503665,0.65113 6.414528,-5.62804 12.808398,-11.28373 19.177816,-16.96044 0.628009,0.74501 1.507779,-2.6401 1.116695,-3.55319 -0.870623,-4.67617 -1.368786,-6.69234 -2.510756,-11.30647 -0.254423,-0.30158 -0.495463,-0.38524 -0.885577,-0.3164 z"
     id="path2109"
     sodipodi:nodetypes="cccccccc" />
  <path
     style="fill:#000000;stroke-width:0.0441942"
     d="m 63.813295,140.1724 c -0.478255,0.0645 -1.014473,0.50211 -0.831894,1.02551 0.218207,0.7343 1.488226,0.64307 1.626823,-0.11028 0.113758,-0.48313 -0.293444,-0.97069 -0.794929,-0.91523 z"
     id="path4645" />
  <path
     style="fill:#000000;stroke-width:0.0220971"
     d="m 44.160519,175.7835 c -0.293396,0.026 -0.513088,0.25079 -0.633622,0.50503 -0.158842,0.23666 -0.273765,0.53386 -0.160266,0.81441 0.137302,0.3731 0.610721,0.56088 0.965701,0.38035 0.243349,-0.13353 0.444947,-0.33758 0.627243,-0.54401 0.196006,-0.30205 0.118742,-0.74012 -0.17947,-0.94636 -0.177378,-0.13753 -0.391336,-0.22774 -0.619586,-0.20942 z"
     id="path4684" />
</svg>
